<svg width="72" height="28" viewBox="0 0 72 28" fill="none" xmlns="http://www.w3.org/2000/svg">
    <path d="M69.877 15.4069V9.3412H72V6.18703H69.877V0H66.7228V6.18703H64.5998V9.3412H66.7228V15.4069C66.7228 18.6217 68.9065 20.8661 71.9393 20.8661V17.7119C70.7262 17.7725 69.877 16.7414 69.877 15.4069Z"
          fill="#F04E4A"/>
    <path d="M45.1896 6.24768H42.0961V20.9267H45.1896V12.92C45.3109 11.7675 45.7355 10.797 46.4634 10.0084C46.9486 9.52316 47.5552 9.15922 48.1618 8.97725V5.6411C47.1913 5.82308 46.1601 6.24768 45.1896 6.9149V6.24768Z"
          fill="#F04E4A"/>
    <path d="M36.6369 6.24768H33.5434V20.9267H36.6369V12.92C36.7582 11.7675 37.1828 10.797 37.9107 10.0084C38.3959 9.52316 39.0025 9.15922 39.6091 8.97725V5.6411C38.6386 5.82308 37.6074 6.24768 36.6369 6.9149V6.24768Z"
          fill="#F04E4A"/>
    <path d="M56.7144 6.24768C52.6504 6.24768 49.3749 9.52316 49.3749 13.5872C49.3749 17.6512 52.6504 20.9267 56.7144 20.9267C60.7784 20.9267 64.0539 17.6512 64.0539 13.5872C64.0539 11.9494 63.508 10.3724 62.5375 9.09856C61.1424 7.27885 59.0194 6.24768 56.7144 6.24768ZM59.9899 16.2561C59.2014 17.2266 57.9882 17.7725 56.7751 17.7725C54.4701 17.7725 52.5897 15.8922 52.5897 13.5872C52.5897 11.2822 54.4701 9.40185 56.7751 9.40185C59.08 9.40185 60.9604 11.2822 60.9604 13.5872C60.8998 14.5577 60.5965 15.4676 59.9899 16.2561Z"
          fill="#F04E4A"/>
    <path d="M27.2957 7.58213C26.0826 6.73293 24.5661 6.24768 23.0497 6.24768C18.9857 6.24768 15.7102 9.52316 15.7102 13.5872C15.7102 17.6512 18.9857 20.9267 23.0497 20.9267C24.5661 20.9267 26.0219 20.4414 27.2957 19.5922V20.9267H30.4499V6.24768H27.2957V7.58213ZM26.3252 16.2561C25.5367 17.2266 24.3235 17.7725 23.1104 17.7725C20.8054 17.7725 18.925 15.8922 18.925 13.5872C18.925 11.2822 20.8054 9.40185 23.1104 9.40185C25.4153 9.40185 27.2957 11.2822 27.2957 13.5872C27.2957 14.5577 26.9318 15.4676 26.3252 16.2561Z"
          fill="#F04E4A"/>
    <path d="M7.33951 6.24768C5.82308 6.24768 4.36731 6.73293 3.09351 7.58213V6.24768H0V27.2957H3.15417V19.5922C4.36731 20.4414 5.88374 20.9267 7.40017 20.9267C11.4642 20.9267 14.7397 17.6512 14.7397 13.5872C14.7397 9.52316 11.4035 6.24768 7.33951 6.24768ZM7.33951 17.7725C5.03454 17.7725 3.15417 15.9528 3.09351 13.5872C3.03286 11.2216 4.91323 9.40185 7.27885 9.34119H7.33951C9.64448 9.34119 11.5249 11.2216 11.5249 13.5265C11.5249 15.8315 9.70514 17.7725 7.33951 17.7725Z"
          fill="#F04E4A"/>
</svg>
